<svg width="1245" height="424" viewBox="0 0 1245 424" fill="none" xmlns="http://www.w3.org/2000/svg">
<rect width="1245" height="424.264" fill="#1C1C1C"/>
<path d="M589.895 280.656C589.934 280.812 589.953 281.066 589.953 281.418C589.953 283.488 589.562 285.559 588.781 287.629C588 289.66 586.887 291.535 585.441 293.254C584.035 294.934 582.199 296.301 579.934 297.355C577.668 298.41 575.168 298.938 572.434 298.938C568.996 298.938 565.852 298.02 563 296.184C563.43 296.223 563.918 296.242 564.465 296.242C567.316 296.242 569.875 295.363 572.141 293.605C570.773 293.605 569.562 293.215 568.508 292.434C567.492 291.613 566.789 290.598 566.398 289.387C566.789 289.426 567.16 289.445 567.512 289.445C568.059 289.445 568.605 289.387 569.152 289.27C568.215 289.074 567.375 288.684 566.633 288.098C565.891 287.512 565.305 286.809 564.875 285.988C564.445 285.129 564.23 284.211 564.23 283.234V283.117C565.09 283.625 566.008 283.898 566.984 283.938C565.148 282.688 564.23 280.969 564.23 278.781C564.23 277.688 564.523 276.652 565.109 275.676C566.633 277.59 568.488 279.113 570.676 280.246C572.902 281.379 575.266 282.004 577.766 282.121C577.688 281.652 577.648 281.184 577.648 280.715C577.648 279.035 578.234 277.59 579.406 276.379C580.617 275.168 582.062 274.562 583.742 274.562C585.539 274.562 587.043 275.207 588.254 276.496C589.66 276.223 590.969 275.734 592.18 275.031C591.711 276.477 590.812 277.609 589.484 278.43C590.656 278.273 591.828 277.941 593 277.434C592.141 278.684 591.105 279.758 589.895 280.656Z" fill="white"/>
<path d="M617.379 282.004C618.707 280.676 620.309 280.012 622.184 280.012C624.059 280.012 625.641 280.676 626.93 282.004C628.258 283.293 628.922 284.875 628.922 286.75C628.922 288.625 628.258 290.227 626.93 291.555C625.641 292.844 624.059 293.488 622.184 293.488C620.309 293.488 618.707 292.844 617.379 291.555C616.09 290.227 615.445 288.625 615.445 286.75C615.445 284.875 616.09 283.293 617.379 282.004ZM619.078 289.855C619.938 290.715 620.973 291.145 622.184 291.145C623.395 291.145 624.43 290.715 625.289 289.855C626.148 288.996 626.578 287.961 626.578 286.75C626.578 285.539 626.148 284.504 625.289 283.645C624.43 282.785 623.395 282.355 622.184 282.355C620.973 282.355 619.938 282.785 619.078 283.645C618.219 284.504 617.789 285.539 617.789 286.75C617.789 287.961 618.219 288.996 619.078 289.855ZM630.27 278.664C630.582 278.938 630.738 279.289 630.738 279.719C630.738 280.148 630.582 280.52 630.27 280.832C629.996 281.145 629.645 281.301 629.215 281.301C628.785 281.301 628.414 281.145 628.102 280.832C627.789 280.52 627.633 280.148 627.633 279.719C627.633 279.289 627.789 278.938 628.102 278.664C628.414 278.352 628.785 278.195 629.215 278.195C629.645 278.195 629.996 278.352 630.27 278.664ZM635.25 281.359C635.289 282.414 635.309 284.211 635.309 286.75C635.309 289.289 635.289 291.086 635.25 292.141C635.133 294.523 634.41 296.379 633.082 297.707C631.793 298.996 629.957 299.68 627.574 299.758C626.52 299.836 624.723 299.875 622.184 299.875C619.645 299.875 617.848 299.836 616.793 299.758C614.41 299.641 612.574 298.938 611.285 297.648C610.777 297.18 610.367 296.633 610.055 296.008C609.742 295.383 609.508 294.777 609.352 294.191C609.234 293.605 609.176 292.922 609.176 292.141C609.098 291.086 609.059 289.289 609.059 286.75C609.059 284.211 609.098 282.395 609.176 281.301C609.293 278.957 609.996 277.141 611.285 275.852C612.574 274.523 614.41 273.801 616.793 273.684C617.848 273.645 619.645 273.625 622.184 273.625C624.723 273.625 626.52 273.645 627.574 273.684C629.957 273.801 631.793 274.523 633.082 275.852C634.41 277.141 635.133 278.977 635.25 281.359ZM632.438 294.484C632.555 294.172 632.652 293.781 632.73 293.312C632.809 292.805 632.867 292.219 632.906 291.555C632.945 290.852 632.965 290.285 632.965 289.855C632.965 289.426 632.965 288.82 632.965 288.039C632.965 287.258 632.965 286.828 632.965 286.75C632.965 286.633 632.965 286.203 632.965 285.461C632.965 284.68 632.965 284.074 632.965 283.645C632.965 283.215 632.945 282.668 632.906 282.004C632.867 281.301 632.809 280.715 632.73 280.246C632.652 279.738 632.555 279.328 632.438 279.016C631.969 277.805 631.129 276.965 629.918 276.496C629.605 276.379 629.195 276.281 628.688 276.203C628.219 276.125 627.633 276.066 626.93 276.027C626.266 275.988 625.719 275.969 625.289 275.969C624.898 275.969 624.293 275.969 623.473 275.969C622.691 275.969 622.262 275.969 622.184 275.969C622.105 275.969 621.676 275.969 620.895 275.969C620.113 275.969 619.508 275.969 619.078 275.969C618.648 275.969 618.082 275.988 617.379 276.027C616.715 276.066 616.129 276.125 615.621 276.203C615.152 276.281 614.762 276.379 614.449 276.496C613.238 276.965 612.398 277.805 611.93 279.016C611.812 279.328 611.715 279.738 611.637 280.246C611.559 280.715 611.5 281.301 611.461 282.004C611.422 282.668 611.402 283.215 611.402 283.645C611.402 284.035 611.402 284.641 611.402 285.461C611.402 286.242 611.402 286.672 611.402 286.75C611.402 286.906 611.402 287.277 611.402 287.863C611.402 288.41 611.402 288.879 611.402 289.27C611.402 289.621 611.402 290.09 611.402 290.676C611.441 291.262 611.48 291.77 611.52 292.199C611.559 292.59 611.617 293 611.695 293.43C611.773 293.859 611.852 294.211 611.93 294.484C612.438 295.695 613.277 296.535 614.449 297.004C614.762 297.121 615.152 297.219 615.621 297.297C616.129 297.375 616.715 297.434 617.379 297.473C618.082 297.512 618.629 297.531 619.02 297.531C619.449 297.531 620.055 297.531 620.836 297.531C621.656 297.531 622.105 297.531 622.184 297.531C622.301 297.531 622.73 297.531 623.473 297.531C624.254 297.531 624.859 297.531 625.289 297.531C625.719 297.531 626.266 297.512 626.93 297.473C627.633 297.434 628.219 297.375 628.688 297.297C629.195 297.219 629.605 297.121 629.918 297.004C631.129 296.496 631.969 295.656 632.438 294.484Z" fill="white"/>
<path d="M677.375 273.625C677.883 273.625 678.312 273.82 678.664 274.211C679.055 274.562 679.25 274.992 679.25 275.5V298C679.25 298.508 679.055 298.938 678.664 299.289C678.312 299.68 677.883 299.875 677.375 299.875H654.875C654.367 299.875 653.918 299.68 653.527 299.289C653.176 298.938 653 298.508 653 298V275.5C653 274.992 653.176 274.562 653.527 274.211C653.918 273.82 654.367 273.625 654.875 273.625H677.375ZM660.91 296.125H660.969V283.586H657.043V296.125H660.91ZM657.395 281.242C657.824 281.672 658.352 281.887 658.977 281.887C659.602 281.887 660.129 281.672 660.559 281.242C661.027 280.773 661.262 280.246 661.262 279.66C661.262 279.035 661.027 278.508 660.559 278.078C660.129 277.609 659.602 277.375 658.977 277.375C658.352 277.375 657.824 277.609 657.395 278.078C656.965 278.508 656.75 279.035 656.75 279.66C656.75 280.246 656.965 280.773 657.395 281.242ZM675.5 296.125V289.27C675.5 288.332 675.441 287.531 675.324 286.867C675.207 286.203 674.992 285.598 674.68 285.051C674.367 284.465 673.879 284.035 673.215 283.762C672.59 283.449 671.809 283.293 670.871 283.293C669.973 283.293 669.191 283.488 668.527 283.879C667.902 284.27 667.453 284.738 667.18 285.285H667.121V283.586H663.371V296.125H667.297V289.914C667.297 288.938 667.453 288.156 667.766 287.57C668.078 286.984 668.684 286.691 669.582 286.691C670.051 286.691 670.441 286.789 670.754 286.984C671.066 287.18 671.262 287.473 671.34 287.863C671.457 288.254 671.535 288.605 671.574 288.918C671.613 289.191 671.633 289.562 671.633 290.031V296.125H675.5Z" fill="white"/>
<path d="M476.539 205V193.578H477.867V203.797H482.906V205H476.539ZM489.922 205L489.664 203.781H489.602C489.174 204.318 488.747 204.682 488.32 204.875C487.898 205.062 487.37 205.156 486.734 205.156C485.885 205.156 485.219 204.938 484.734 204.5C484.255 204.062 484.016 203.44 484.016 202.633C484.016 200.904 485.398 199.997 488.164 199.914L489.617 199.867V199.336C489.617 198.664 489.471 198.169 489.18 197.852C488.893 197.529 488.432 197.367 487.797 197.367C487.083 197.367 486.276 197.586 485.375 198.023L484.977 197.031C485.398 196.802 485.859 196.622 486.359 196.492C486.865 196.362 487.37 196.297 487.875 196.297C488.896 196.297 489.651 196.523 490.141 196.977C490.635 197.43 490.883 198.156 490.883 199.156V205H489.922ZM486.992 204.086C487.799 204.086 488.432 203.865 488.891 203.422C489.354 202.979 489.586 202.359 489.586 201.562V200.789L488.289 200.844C487.258 200.88 486.513 201.042 486.055 201.328C485.602 201.609 485.375 202.049 485.375 202.648C485.375 203.117 485.516 203.474 485.797 203.719C486.083 203.964 486.482 204.086 486.992 204.086ZM497.547 196.297C498.672 196.297 499.544 196.682 500.164 197.453C500.789 198.219 501.102 199.305 501.102 200.711C501.102 202.117 500.786 203.211 500.156 203.992C499.531 204.768 498.661 205.156 497.547 205.156C496.99 205.156 496.479 205.055 496.016 204.852C495.557 204.643 495.172 204.326 494.859 203.898H494.766L494.492 205H493.562V192.844H494.859V195.797C494.859 196.458 494.839 197.052 494.797 197.578H494.859C495.464 196.724 496.359 196.297 497.547 196.297ZM497.359 197.383C496.474 197.383 495.836 197.638 495.445 198.148C495.055 198.654 494.859 199.508 494.859 200.711C494.859 201.914 495.06 202.776 495.461 203.297C495.862 203.812 496.505 204.07 497.391 204.07C498.188 204.07 498.781 203.781 499.172 203.203C499.562 202.62 499.758 201.784 499.758 200.695C499.758 199.581 499.562 198.75 499.172 198.203C498.781 197.656 498.177 197.383 497.359 197.383ZM510.766 200.711C510.766 202.107 510.414 203.198 509.711 203.984C509.008 204.766 508.036 205.156 506.797 205.156C506.031 205.156 505.352 204.977 504.758 204.617C504.164 204.258 503.706 203.742 503.383 203.07C503.06 202.398 502.898 201.612 502.898 200.711C502.898 199.315 503.247 198.229 503.945 197.453C504.643 196.672 505.612 196.281 506.852 196.281C508.049 196.281 509 196.68 509.703 197.477C510.411 198.273 510.766 199.352 510.766 200.711ZM504.242 200.711C504.242 201.805 504.461 202.638 504.898 203.211C505.336 203.784 505.979 204.07 506.828 204.07C507.677 204.07 508.32 203.786 508.758 203.219C509.201 202.646 509.422 201.81 509.422 200.711C509.422 199.622 509.201 198.797 508.758 198.234C508.32 197.667 507.672 197.383 506.812 197.383C505.964 197.383 505.323 197.661 504.891 198.219C504.458 198.776 504.242 199.607 504.242 200.711ZM516.953 196.281C517.333 196.281 517.674 196.312 517.977 196.375L517.797 197.578C517.443 197.5 517.13 197.461 516.859 197.461C516.167 197.461 515.573 197.742 515.078 198.305C514.589 198.867 514.344 199.568 514.344 200.406V205H513.047V196.438H514.117L514.266 198.023H514.328C514.646 197.466 515.029 197.036 515.477 196.734C515.924 196.432 516.417 196.281 516.953 196.281ZM520.875 205H519.578V196.438H520.875V205ZM519.469 194.117C519.469 193.82 519.542 193.604 519.688 193.469C519.833 193.328 520.016 193.258 520.234 193.258C520.443 193.258 520.622 193.328 520.773 193.469C520.924 193.609 521 193.826 521 194.117C521 194.409 520.924 194.628 520.773 194.773C520.622 194.914 520.443 194.984 520.234 194.984C520.016 194.984 519.833 194.914 519.688 194.773C519.542 194.628 519.469 194.409 519.469 194.117ZM529.148 202.664C529.148 203.461 528.852 204.076 528.258 204.508C527.664 204.94 526.831 205.156 525.758 205.156C524.622 205.156 523.737 204.977 523.102 204.617V203.414C523.513 203.622 523.953 203.786 524.422 203.906C524.896 204.026 525.352 204.086 525.789 204.086C526.466 204.086 526.987 203.979 527.352 203.766C527.716 203.547 527.898 203.216 527.898 202.773C527.898 202.44 527.753 202.156 527.461 201.922C527.174 201.682 526.612 201.401 525.773 201.078C524.977 200.781 524.409 200.523 524.07 200.305C523.737 200.081 523.487 199.828 523.32 199.547C523.159 199.266 523.078 198.93 523.078 198.539C523.078 197.841 523.362 197.292 523.93 196.891C524.497 196.484 525.276 196.281 526.266 196.281C527.188 196.281 528.089 196.469 528.969 196.844L528.508 197.898C527.648 197.544 526.87 197.367 526.172 197.367C525.557 197.367 525.094 197.464 524.781 197.656C524.469 197.849 524.312 198.115 524.312 198.453C524.312 198.682 524.37 198.878 524.484 199.039C524.604 199.201 524.794 199.354 525.055 199.5C525.315 199.646 525.815 199.857 526.555 200.133C527.57 200.503 528.255 200.875 528.609 201.25C528.969 201.625 529.148 202.096 529.148 202.664ZM538.844 205.156C537.604 205.156 536.643 204.776 535.961 204.016C535.284 203.25 534.945 202.169 534.945 200.773C534.945 199.341 535.289 198.234 535.977 197.453C536.669 196.672 537.654 196.281 538.93 196.281C539.341 196.281 539.753 196.326 540.164 196.414C540.576 196.503 540.898 196.607 541.133 196.727L540.734 197.828C540.448 197.714 540.135 197.62 539.797 197.547C539.458 197.469 539.159 197.43 538.898 197.43C537.159 197.43 536.289 198.539 536.289 200.758C536.289 201.81 536.5 202.617 536.922 203.18C537.349 203.742 537.979 204.023 538.812 204.023C539.526 204.023 540.258 203.87 541.008 203.562V204.711C540.435 205.008 539.714 205.156 538.844 205.156ZM550.438 200.711C550.438 202.107 550.086 203.198 549.383 203.984C548.68 204.766 547.708 205.156 546.469 205.156C545.703 205.156 545.023 204.977 544.43 204.617C543.836 204.258 543.378 203.742 543.055 203.07C542.732 202.398 542.57 201.612 542.57 200.711C542.57 199.315 542.919 198.229 543.617 197.453C544.315 196.672 545.284 196.281 546.523 196.281C547.721 196.281 548.672 196.68 549.375 197.477C550.083 198.273 550.438 199.352 550.438 200.711ZM543.914 200.711C543.914 201.805 544.133 202.638 544.57 203.211C545.008 203.784 545.651 204.07 546.5 204.07C547.349 204.07 547.992 203.786 548.43 203.219C548.872 202.646 549.094 201.81 549.094 200.711C549.094 199.622 548.872 198.797 548.43 198.234C547.992 197.667 547.344 197.383 546.484 197.383C545.635 197.383 544.995 197.661 544.562 198.219C544.13 198.776 543.914 199.607 543.914 200.711ZM558.578 205V199.461C558.578 198.763 558.419 198.242 558.102 197.898C557.784 197.555 557.286 197.383 556.609 197.383C555.714 197.383 555.057 197.625 554.641 198.109C554.224 198.594 554.016 199.393 554.016 200.508V205H552.719V196.438H553.773L553.984 197.609H554.047C554.312 197.188 554.685 196.862 555.164 196.633C555.643 196.398 556.177 196.281 556.766 196.281C557.797 196.281 558.573 196.531 559.094 197.031C559.615 197.526 559.875 198.32 559.875 199.414V205H558.578ZM568.07 202.664C568.07 203.461 567.773 204.076 567.18 204.508C566.586 204.94 565.753 205.156 564.68 205.156C563.544 205.156 562.659 204.977 562.023 204.617V203.414C562.435 203.622 562.875 203.786 563.344 203.906C563.818 204.026 564.273 204.086 564.711 204.086C565.388 204.086 565.909 203.979 566.273 203.766C566.638 203.547 566.82 203.216 566.82 202.773C566.82 202.44 566.674 202.156 566.383 201.922C566.096 201.682 565.534 201.401 564.695 201.078C563.898 200.781 563.331 200.523 562.992 200.305C562.659 200.081 562.409 199.828 562.242 199.547C562.081 199.266 562 198.93 562 198.539C562 197.841 562.284 197.292 562.852 196.891C563.419 196.484 564.198 196.281 565.188 196.281C566.109 196.281 567.01 196.469 567.891 196.844L567.43 197.898C566.57 197.544 565.792 197.367 565.094 197.367C564.479 197.367 564.016 197.464 563.703 197.656C563.391 197.849 563.234 198.115 563.234 198.453C563.234 198.682 563.292 198.878 563.406 199.039C563.526 199.201 563.716 199.354 563.977 199.5C564.237 199.646 564.737 199.857 565.477 200.133C566.492 200.503 567.177 200.875 567.531 201.25C567.891 201.625 568.07 202.096 568.07 202.664ZM573.805 205.156C572.539 205.156 571.539 204.771 570.805 204C570.076 203.229 569.711 202.159 569.711 200.789C569.711 199.409 570.049 198.312 570.727 197.5C571.409 196.688 572.323 196.281 573.469 196.281C574.542 196.281 575.391 196.635 576.016 197.344C576.641 198.047 576.953 198.977 576.953 200.133V200.953H571.055C571.081 201.958 571.333 202.721 571.812 203.242C572.297 203.763 572.977 204.023 573.852 204.023C574.773 204.023 575.685 203.831 576.586 203.445V204.602C576.128 204.799 575.693 204.94 575.281 205.023C574.875 205.112 574.383 205.156 573.805 205.156ZM573.453 197.367C572.766 197.367 572.216 197.591 571.805 198.039C571.398 198.487 571.159 199.107 571.086 199.898H575.562C575.562 199.081 575.38 198.456 575.016 198.023C574.651 197.586 574.13 197.367 573.453 197.367ZM582.594 205.156C581.354 205.156 580.393 204.776 579.711 204.016C579.034 203.25 578.695 202.169 578.695 200.773C578.695 199.341 579.039 198.234 579.727 197.453C580.419 196.672 581.404 196.281 582.68 196.281C583.091 196.281 583.503 196.326 583.914 196.414C584.326 196.503 584.648 196.607 584.883 196.727L584.484 197.828C584.198 197.714 583.885 197.62 583.547 197.547C583.208 197.469 582.909 197.43 582.648 197.43C580.909 197.43 580.039 198.539 580.039 200.758C580.039 201.81 580.25 202.617 580.672 203.18C581.099 203.742 581.729 204.023 582.562 204.023C583.276 204.023 584.008 203.87 584.758 203.562V204.711C584.185 205.008 583.464 205.156 582.594 205.156ZM589.562 204.086C589.792 204.086 590.013 204.07 590.227 204.039C590.44 204.003 590.609 203.966 590.734 203.93V204.922C590.594 204.99 590.385 205.044 590.109 205.086C589.839 205.133 589.594 205.156 589.375 205.156C587.719 205.156 586.891 204.284 586.891 202.539V197.445H585.664V196.82L586.891 196.281L587.438 194.453H588.188V196.438H590.672V197.445H588.188V202.484C588.188 203 588.31 203.396 588.555 203.672C588.799 203.948 589.135 204.086 589.562 204.086ZM596.07 205.156C594.805 205.156 593.805 204.771 593.07 204C592.341 203.229 591.977 202.159 591.977 200.789C591.977 199.409 592.315 198.312 592.992 197.5C593.674 196.688 594.589 196.281 595.734 196.281C596.807 196.281 597.656 196.635 598.281 197.344C598.906 198.047 599.219 198.977 599.219 200.133V200.953H593.32C593.346 201.958 593.599 202.721 594.078 203.242C594.562 203.763 595.242 204.023 596.117 204.023C597.039 204.023 597.951 203.831 598.852 203.445V204.602C598.393 204.799 597.958 204.94 597.547 205.023C597.141 205.112 596.648 205.156 596.07 205.156ZM595.719 197.367C595.031 197.367 594.482 197.591 594.07 198.039C593.664 198.487 593.424 199.107 593.352 199.898H597.828C597.828 199.081 597.646 198.456 597.281 198.023C596.917 197.586 596.396 197.367 595.719 197.367ZM604.203 204.086C604.432 204.086 604.654 204.07 604.867 204.039C605.081 204.003 605.25 203.966 605.375 203.93V204.922C605.234 204.99 605.026 205.044 604.75 205.086C604.479 205.133 604.234 205.156 604.016 205.156C602.359 205.156 601.531 204.284 601.531 202.539V197.445H600.305V196.82L601.531 196.281L602.078 194.453H602.828V196.438H605.312V197.445H602.828V202.484C602.828 203 602.951 203.396 603.195 203.672C603.44 203.948 603.776 204.086 604.203 204.086ZM608.312 196.438V201.992C608.312 202.69 608.471 203.211 608.789 203.555C609.107 203.898 609.604 204.07 610.281 204.07C611.177 204.07 611.831 203.826 612.242 203.336C612.659 202.846 612.867 202.047 612.867 200.938V196.438H614.164V205H613.094L612.906 203.852H612.836C612.57 204.273 612.201 204.596 611.727 204.82C611.258 205.044 610.721 205.156 610.117 205.156C609.076 205.156 608.294 204.909 607.773 204.414C607.258 203.919 607 203.128 607 202.039V196.438H608.312ZM620.828 196.281C621.208 196.281 621.549 196.312 621.852 196.375L621.672 197.578C621.318 197.5 621.005 197.461 620.734 197.461C620.042 197.461 619.448 197.742 618.953 198.305C618.464 198.867 618.219 199.568 618.219 200.406V205H616.922V196.438H617.992L618.141 198.023H618.203C618.521 197.466 618.904 197.036 619.352 196.734C619.799 196.432 620.292 196.281 620.828 196.281ZM633.133 202.664C633.133 203.461 632.836 204.076 632.242 204.508C631.648 204.94 630.815 205.156 629.742 205.156C628.607 205.156 627.721 204.977 627.086 204.617V203.414C627.497 203.622 627.938 203.786 628.406 203.906C628.88 204.026 629.336 204.086 629.773 204.086C630.451 204.086 630.971 203.979 631.336 203.766C631.701 203.547 631.883 203.216 631.883 202.773C631.883 202.44 631.737 202.156 631.445 201.922C631.159 201.682 630.596 201.401 629.758 201.078C628.961 200.781 628.393 200.523 628.055 200.305C627.721 200.081 627.471 199.828 627.305 199.547C627.143 199.266 627.062 198.93 627.062 198.539C627.062 197.841 627.346 197.292 627.914 196.891C628.482 196.484 629.26 196.281 630.25 196.281C631.172 196.281 632.073 196.469 632.953 196.844L632.492 197.898C631.633 197.544 630.854 197.367 630.156 197.367C629.542 197.367 629.078 197.464 628.766 197.656C628.453 197.849 628.297 198.115 628.297 198.453C628.297 198.682 628.354 198.878 628.469 199.039C628.589 199.201 628.779 199.354 629.039 199.5C629.299 199.646 629.799 199.857 630.539 200.133C631.555 200.503 632.24 200.875 632.594 201.25C632.953 201.625 633.133 202.096 633.133 202.664ZM636.469 196.438V201.992C636.469 202.69 636.628 203.211 636.945 203.555C637.263 203.898 637.76 204.07 638.438 204.07C639.333 204.07 639.987 203.826 640.398 203.336C640.815 202.846 641.023 202.047 641.023 200.938V196.438H642.32V205H641.25L641.062 203.852H640.992C640.727 204.273 640.357 204.596 639.883 204.82C639.414 205.044 638.878 205.156 638.273 205.156C637.232 205.156 636.451 204.909 635.93 204.414C635.414 203.919 635.156 203.128 635.156 202.039V196.438H636.469ZM650.938 205V199.461C650.938 198.763 650.779 198.242 650.461 197.898C650.143 197.555 649.646 197.383 648.969 197.383C648.073 197.383 647.417 197.625 647 198.109C646.583 198.594 646.375 199.393 646.375 200.508V205H645.078V196.438H646.133L646.344 197.609H646.406C646.672 197.188 647.044 196.862 647.523 196.633C648.003 196.398 648.536 196.281 649.125 196.281C650.156 196.281 650.932 196.531 651.453 197.031C651.974 197.526 652.234 198.32 652.234 199.414V205H650.938ZM657.672 204.086C657.901 204.086 658.122 204.07 658.336 204.039C658.549 204.003 658.719 203.966 658.844 203.93V204.922C658.703 204.99 658.495 205.044 658.219 205.086C657.948 205.133 657.703 205.156 657.484 205.156C655.828 205.156 655 204.284 655 202.539V197.445H653.773V196.82L655 196.281L655.547 194.453H656.297V196.438H658.781V197.445H656.297V202.484C656.297 203 656.419 203.396 656.664 203.672C656.909 203.948 657.245 204.086 657.672 204.086ZM670.578 205V199.461C670.578 198.763 670.419 198.242 670.102 197.898C669.784 197.555 669.286 197.383 668.609 197.383C667.714 197.383 667.057 197.625 666.641 198.109C666.224 198.594 666.016 199.393 666.016 200.508V205H664.719V196.438H665.773L665.984 197.609H666.047C666.312 197.188 666.685 196.862 667.164 196.633C667.643 196.398 668.177 196.281 668.766 196.281C669.797 196.281 670.573 196.531 671.094 197.031C671.615 197.526 671.875 198.32 671.875 199.414V205H670.578ZM675.766 196.438V201.992C675.766 202.69 675.924 203.211 676.242 203.555C676.56 203.898 677.057 204.07 677.734 204.07C678.63 204.07 679.284 203.826 679.695 203.336C680.112 202.846 680.32 202.047 680.32 200.938V196.438H681.617V205H680.547L680.359 203.852H680.289C680.023 204.273 679.654 204.596 679.18 204.82C678.711 205.044 678.174 205.156 677.57 205.156C676.529 205.156 675.747 204.909 675.227 204.414C674.711 203.919 674.453 203.128 674.453 202.039V196.438H675.766ZM685.672 205H684.375V192.844H685.672V205ZM689.719 205H688.422V192.844H689.719V205ZM697.734 205L697.477 203.781H697.414C696.987 204.318 696.56 204.682 696.133 204.875C695.711 205.062 695.182 205.156 694.547 205.156C693.698 205.156 693.031 204.938 692.547 204.5C692.068 204.062 691.828 203.44 691.828 202.633C691.828 200.904 693.211 199.997 695.977 199.914L697.43 199.867V199.336C697.43 198.664 697.284 198.169 696.992 197.852C696.706 197.529 696.245 197.367 695.609 197.367C694.896 197.367 694.089 197.586 693.188 198.023L692.789 197.031C693.211 196.802 693.672 196.622 694.172 196.492C694.677 196.362 695.182 196.297 695.688 196.297C696.708 196.297 697.464 196.523 697.953 196.977C698.448 197.43 698.695 198.156 698.695 199.156V205H697.734ZM694.805 204.086C695.612 204.086 696.245 203.865 696.703 203.422C697.167 202.979 697.398 202.359 697.398 201.562V200.789L696.102 200.844C695.07 200.88 694.326 201.042 693.867 201.328C693.414 201.609 693.188 202.049 693.188 202.648C693.188 203.117 693.328 203.474 693.609 203.719C693.896 203.964 694.294 204.086 694.805 204.086ZM709.148 205.156C707.883 205.156 706.883 204.771 706.148 204C705.419 203.229 705.055 202.159 705.055 200.789C705.055 199.409 705.393 198.312 706.07 197.5C706.753 196.688 707.667 196.281 708.812 196.281C709.885 196.281 710.734 196.635 711.359 197.344C711.984 198.047 712.297 198.977 712.297 200.133V200.953H706.398C706.424 201.958 706.677 202.721 707.156 203.242C707.641 203.763 708.32 204.023 709.195 204.023C710.117 204.023 711.029 203.831 711.93 203.445V204.602C711.471 204.799 711.036 204.94 710.625 205.023C710.219 205.112 709.727 205.156 709.148 205.156ZM708.797 197.367C708.109 197.367 707.56 197.591 707.148 198.039C706.742 198.487 706.503 199.107 706.43 199.898H710.906C710.906 199.081 710.724 198.456 710.359 198.023C709.995 197.586 709.474 197.367 708.797 197.367ZM715.812 205H714.516V196.438H715.812V205ZM714.406 194.117C714.406 193.82 714.479 193.604 714.625 193.469C714.771 193.328 714.953 193.258 715.172 193.258C715.38 193.258 715.56 193.328 715.711 193.469C715.862 193.609 715.938 193.826 715.938 194.117C715.938 194.409 715.862 194.628 715.711 194.773C715.56 194.914 715.38 194.984 715.172 194.984C714.953 194.984 714.771 194.914 714.625 194.773C714.479 194.628 714.406 194.409 714.406 194.117ZM719.781 196.438V201.992C719.781 202.69 719.94 203.211 720.258 203.555C720.576 203.898 721.073 204.07 721.75 204.07C722.646 204.07 723.299 203.826 723.711 203.336C724.128 202.846 724.336 202.047 724.336 200.938V196.438H725.633V205H724.562L724.375 203.852H724.305C724.039 204.273 723.669 204.596 723.195 204.82C722.727 205.044 722.19 205.156 721.586 205.156C720.544 205.156 719.763 204.909 719.242 204.414C718.727 203.919 718.469 203.128 718.469 202.039V196.438H719.781ZM733.914 202.664C733.914 203.461 733.617 204.076 733.023 204.508C732.43 204.94 731.596 205.156 730.523 205.156C729.388 205.156 728.503 204.977 727.867 204.617V203.414C728.279 203.622 728.719 203.786 729.188 203.906C729.661 204.026 730.117 204.086 730.555 204.086C731.232 204.086 731.753 203.979 732.117 203.766C732.482 203.547 732.664 203.216 732.664 202.773C732.664 202.44 732.518 202.156 732.227 201.922C731.94 201.682 731.378 201.401 730.539 201.078C729.742 200.781 729.174 200.523 728.836 200.305C728.503 200.081 728.253 199.828 728.086 199.547C727.924 199.266 727.844 198.93 727.844 198.539C727.844 197.841 728.128 197.292 728.695 196.891C729.263 196.484 730.042 196.281 731.031 196.281C731.953 196.281 732.854 196.469 733.734 196.844L733.273 197.898C732.414 197.544 731.635 197.367 730.938 197.367C730.323 197.367 729.859 197.464 729.547 197.656C729.234 197.849 729.078 198.115 729.078 198.453C729.078 198.682 729.135 198.878 729.25 199.039C729.37 199.201 729.56 199.354 729.82 199.5C730.081 199.646 730.581 199.857 731.32 200.133C732.336 200.503 733.021 200.875 733.375 201.25C733.734 201.625 733.914 202.096 733.914 202.664ZM746.945 205V199.43C746.945 198.747 746.799 198.237 746.508 197.898C746.216 197.555 745.763 197.383 745.148 197.383C744.341 197.383 743.745 197.615 743.359 198.078C742.974 198.542 742.781 199.255 742.781 200.219V205H741.484V199.43C741.484 198.747 741.339 198.237 741.047 197.898C740.755 197.555 740.299 197.383 739.68 197.383C738.867 197.383 738.271 197.628 737.891 198.117C737.516 198.602 737.328 199.398 737.328 200.508V205H736.031V196.438H737.086L737.297 197.609H737.359C737.604 197.193 737.948 196.867 738.391 196.633C738.839 196.398 739.339 196.281 739.891 196.281C741.229 196.281 742.104 196.766 742.516 197.734H742.578C742.833 197.286 743.203 196.932 743.688 196.672C744.172 196.411 744.724 196.281 745.344 196.281C746.312 196.281 747.036 196.531 747.516 197.031C748 197.526 748.242 198.32 748.242 199.414V205H746.945ZM758.312 200.711C758.312 202.107 757.961 203.198 757.258 203.984C756.555 204.766 755.583 205.156 754.344 205.156C753.578 205.156 752.898 204.977 752.305 204.617C751.711 204.258 751.253 203.742 750.93 203.07C750.607 202.398 750.445 201.612 750.445 200.711C750.445 199.315 750.794 198.229 751.492 197.453C752.19 196.672 753.159 196.281 754.398 196.281C755.596 196.281 756.547 196.68 757.25 197.477C757.958 198.273 758.312 199.352 758.312 200.711ZM751.789 200.711C751.789 201.805 752.008 202.638 752.445 203.211C752.883 203.784 753.526 204.07 754.375 204.07C755.224 204.07 755.867 203.786 756.305 203.219C756.747 202.646 756.969 201.81 756.969 200.711C756.969 199.622 756.747 198.797 756.305 198.234C755.867 197.667 755.219 197.383 754.359 197.383C753.51 197.383 752.87 197.661 752.438 198.219C752.005 198.776 751.789 199.607 751.789 200.711ZM766.422 203.852H766.352C765.753 204.721 764.857 205.156 763.664 205.156C762.544 205.156 761.672 204.773 761.047 204.008C760.427 203.242 760.117 202.154 760.117 200.742C760.117 199.331 760.43 198.234 761.055 197.453C761.68 196.672 762.549 196.281 763.664 196.281C764.826 196.281 765.716 196.703 766.336 197.547H766.438L766.383 196.93L766.352 196.328V192.844H767.648V205H766.594L766.422 203.852ZM763.828 204.07C764.714 204.07 765.354 203.831 765.75 203.352C766.151 202.867 766.352 202.089 766.352 201.016V200.742C766.352 199.529 766.148 198.664 765.742 198.148C765.341 197.628 764.698 197.367 763.812 197.367C763.052 197.367 762.469 197.664 762.062 198.258C761.661 198.846 761.461 199.68 761.461 200.758C761.461 201.852 761.661 202.677 762.062 203.234C762.464 203.792 763.052 204.07 763.828 204.07ZM500.453 229L497.203 220.438H498.594L500.438 225.516C500.854 226.703 501.099 227.474 501.172 227.828H501.234C501.292 227.552 501.471 226.982 501.773 226.117C502.081 225.247 502.766 223.354 503.828 220.438H505.219L501.969 229H500.453ZM513.984 224.711C513.984 226.107 513.633 227.198 512.93 227.984C512.227 228.766 511.255 229.156 510.016 229.156C509.25 229.156 508.57 228.977 507.977 228.617C507.383 228.258 506.924 227.742 506.602 227.07C506.279 226.398 506.117 225.612 506.117 224.711C506.117 223.315 506.466 222.229 507.164 221.453C507.862 220.672 508.831 220.281 510.07 220.281C511.268 220.281 512.219 220.68 512.922 221.477C513.63 222.273 513.984 223.352 513.984 224.711ZM507.461 224.711C507.461 225.805 507.68 226.638 508.117 227.211C508.555 227.784 509.198 228.07 510.047 228.07C510.896 228.07 511.539 227.786 511.977 227.219C512.419 226.646 512.641 225.81 512.641 224.711C512.641 223.622 512.419 222.797 511.977 222.234C511.539 221.667 510.891 221.383 510.031 221.383C509.182 221.383 508.542 221.661 508.109 222.219C507.677 222.776 507.461 223.607 507.461 224.711ZM517.562 229H516.266V216.844H517.562V229ZM521.531 220.438V225.992C521.531 226.69 521.69 227.211 522.008 227.555C522.326 227.898 522.823 228.07 523.5 228.07C524.396 228.07 525.049 227.826 525.461 227.336C525.878 226.846 526.086 226.047 526.086 224.938V220.438H527.383V229H526.312L526.125 227.852H526.055C525.789 228.273 525.419 228.596 524.945 228.82C524.477 229.044 523.94 229.156 523.336 229.156C522.294 229.156 521.513 228.909 520.992 228.414C520.477 227.919 520.219 227.128 520.219 226.039V220.438H521.531ZM534.125 229.156C533.568 229.156 533.057 229.055 532.594 228.852C532.135 228.643 531.75 228.326 531.438 227.898H531.344C531.406 228.398 531.438 228.872 531.438 229.32V232.844H530.141V220.438H531.195L531.375 221.609H531.438C531.771 221.141 532.159 220.802 532.602 220.594C533.044 220.385 533.552 220.281 534.125 220.281C535.26 220.281 536.135 220.669 536.75 221.445C537.37 222.221 537.68 223.31 537.68 224.711C537.68 226.117 537.365 227.211 536.734 227.992C536.109 228.768 535.24 229.156 534.125 229.156ZM533.938 221.383C533.062 221.383 532.43 221.625 532.039 222.109C531.648 222.594 531.448 223.365 531.438 224.422V224.711C531.438 225.914 531.638 226.776 532.039 227.297C532.44 227.812 533.083 228.07 533.969 228.07C534.708 228.07 535.286 227.771 535.703 227.172C536.125 226.573 536.336 225.747 536.336 224.695C536.336 223.628 536.125 222.81 535.703 222.242C535.286 221.669 534.698 221.383 533.938 221.383ZM542.719 228.086C542.948 228.086 543.169 228.07 543.383 228.039C543.596 228.003 543.766 227.966 543.891 227.93V228.922C543.75 228.99 543.542 229.044 543.266 229.086C542.995 229.133 542.75 229.156 542.531 229.156C540.875 229.156 540.047 228.284 540.047 226.539V221.445H538.82V220.82L540.047 220.281L540.594 218.453H541.344V220.438H543.828V221.445H541.344V226.484C541.344 227 541.466 227.396 541.711 227.672C541.956 227.948 542.292 228.086 542.719 228.086ZM550.875 229L550.617 227.781H550.555C550.128 228.318 549.701 228.682 549.273 228.875C548.852 229.062 548.323 229.156 547.688 229.156C546.839 229.156 546.172 228.938 545.688 228.5C545.208 228.062 544.969 227.44 544.969 226.633C544.969 224.904 546.352 223.997 549.117 223.914L550.57 223.867V223.336C550.57 222.664 550.424 222.169 550.133 221.852C549.846 221.529 549.385 221.367 548.75 221.367C548.036 221.367 547.229 221.586 546.328 222.023L545.93 221.031C546.352 220.802 546.812 220.622 547.312 220.492C547.818 220.362 548.323 220.297 548.828 220.297C549.849 220.297 550.604 220.523 551.094 220.977C551.589 221.43 551.836 222.156 551.836 223.156V229H550.875ZM547.945 228.086C548.753 228.086 549.385 227.865 549.844 227.422C550.307 226.979 550.539 226.359 550.539 225.562V224.789L549.242 224.844C548.211 224.88 547.466 225.042 547.008 225.328C546.555 225.609 546.328 226.049 546.328 226.648C546.328 227.117 546.469 227.474 546.75 227.719C547.036 227.964 547.435 228.086 547.945 228.086ZM557.281 228.086C557.51 228.086 557.732 228.07 557.945 228.039C558.159 228.003 558.328 227.966 558.453 227.93V228.922C558.312 228.99 558.104 229.044 557.828 229.086C557.557 229.133 557.312 229.156 557.094 229.156C555.438 229.156 554.609 228.284 554.609 226.539V221.445H553.383V220.82L554.609 220.281L555.156 218.453H555.906V220.438H558.391V221.445H555.906V226.484C555.906 227 556.029 227.396 556.273 227.672C556.518 227.948 556.854 228.086 557.281 228.086ZM563.789 229.156C562.523 229.156 561.523 228.771 560.789 228C560.06 227.229 559.695 226.159 559.695 224.789C559.695 223.409 560.034 222.312 560.711 221.5C561.393 220.688 562.307 220.281 563.453 220.281C564.526 220.281 565.375 220.635 566 221.344C566.625 222.047 566.938 222.977 566.938 224.133V224.953H561.039C561.065 225.958 561.318 226.721 561.797 227.242C562.281 227.763 562.961 228.023 563.836 228.023C564.758 228.023 565.669 227.831 566.57 227.445V228.602C566.112 228.799 565.677 228.94 565.266 229.023C564.859 229.112 564.367 229.156 563.789 229.156ZM563.438 221.367C562.75 221.367 562.201 221.591 561.789 222.039C561.383 222.487 561.143 223.107 561.07 223.898H565.547C565.547 223.081 565.365 222.456 565 222.023C564.635 221.586 564.115 221.367 563.438 221.367ZM576.93 229.156C575.664 229.156 574.664 228.771 573.93 228C573.201 227.229 572.836 226.159 572.836 224.789C572.836 223.409 573.174 222.312 573.852 221.5C574.534 220.688 575.448 220.281 576.594 220.281C577.667 220.281 578.516 220.635 579.141 221.344C579.766 222.047 580.078 222.977 580.078 224.133V224.953H574.18C574.206 225.958 574.458 226.721 574.938 227.242C575.422 227.763 576.102 228.023 576.977 228.023C577.898 228.023 578.81 227.831 579.711 227.445V228.602C579.253 228.799 578.818 228.94 578.406 229.023C578 229.112 577.508 229.156 576.93 229.156ZM576.578 221.367C575.891 221.367 575.341 221.591 574.93 222.039C574.523 222.487 574.284 223.107 574.211 223.898H578.688C578.688 223.081 578.505 222.456 578.141 222.023C577.776 221.586 577.255 221.367 576.578 221.367ZM583.594 229H582.297V220.438H583.594V229ZM582.188 218.117C582.188 217.82 582.26 217.604 582.406 217.469C582.552 217.328 582.734 217.258 582.953 217.258C583.161 217.258 583.341 217.328 583.492 217.469C583.643 217.609 583.719 217.826 583.719 218.117C583.719 218.409 583.643 218.628 583.492 218.773C583.341 218.914 583.161 218.984 582.953 218.984C582.734 218.984 582.552 218.914 582.406 218.773C582.26 218.628 582.188 218.409 582.188 218.117ZM587.562 220.438V225.992C587.562 226.69 587.721 227.211 588.039 227.555C588.357 227.898 588.854 228.07 589.531 228.07C590.427 228.07 591.081 227.826 591.492 227.336C591.909 226.846 592.117 226.047 592.117 224.938V220.438H593.414V229H592.344L592.156 227.852H592.086C591.82 228.273 591.451 228.596 590.977 228.82C590.508 229.044 589.971 229.156 589.367 229.156C588.326 229.156 587.544 228.909 587.023 228.414C586.508 227.919 586.25 227.128 586.25 226.039V220.438H587.562ZM601.695 226.664C601.695 227.461 601.398 228.076 600.805 228.508C600.211 228.94 599.378 229.156 598.305 229.156C597.169 229.156 596.284 228.977 595.648 228.617V227.414C596.06 227.622 596.5 227.786 596.969 227.906C597.443 228.026 597.898 228.086 598.336 228.086C599.013 228.086 599.534 227.979 599.898 227.766C600.263 227.547 600.445 227.216 600.445 226.773C600.445 226.44 600.299 226.156 600.008 225.922C599.721 225.682 599.159 225.401 598.32 225.078C597.523 224.781 596.956 224.523 596.617 224.305C596.284 224.081 596.034 223.828 595.867 223.547C595.706 223.266 595.625 222.93 595.625 222.539C595.625 221.841 595.909 221.292 596.477 220.891C597.044 220.484 597.823 220.281 598.812 220.281C599.734 220.281 600.635 220.469 601.516 220.844L601.055 221.898C600.195 221.544 599.417 221.367 598.719 221.367C598.104 221.367 597.641 221.464 597.328 221.656C597.016 221.849 596.859 222.115 596.859 222.453C596.859 222.682 596.917 222.878 597.031 223.039C597.151 223.201 597.341 223.354 597.602 223.5C597.862 223.646 598.362 223.857 599.102 224.133C600.117 224.503 600.802 224.875 601.156 225.25C601.516 225.625 601.695 226.096 601.695 226.664ZM614.727 229V223.43C614.727 222.747 614.581 222.237 614.289 221.898C613.997 221.555 613.544 221.383 612.93 221.383C612.122 221.383 611.526 221.615 611.141 222.078C610.755 222.542 610.562 223.255 610.562 224.219V229H609.266V223.43C609.266 222.747 609.12 222.237 608.828 221.898C608.536 221.555 608.081 221.383 607.461 221.383C606.648 221.383 606.052 221.628 605.672 222.117C605.297 222.602 605.109 223.398 605.109 224.508V229H603.812V220.438H604.867L605.078 221.609H605.141C605.385 221.193 605.729 220.867 606.172 220.633C606.62 220.398 607.12 220.281 607.672 220.281C609.01 220.281 609.885 220.766 610.297 221.734H610.359C610.615 221.286 610.984 220.932 611.469 220.672C611.953 220.411 612.505 220.281 613.125 220.281C614.094 220.281 614.818 220.531 615.297 221.031C615.781 221.526 616.023 222.32 616.023 223.414V229H614.727ZM626.094 224.711C626.094 226.107 625.742 227.198 625.039 227.984C624.336 228.766 623.365 229.156 622.125 229.156C621.359 229.156 620.68 228.977 620.086 228.617C619.492 228.258 619.034 227.742 618.711 227.07C618.388 226.398 618.227 225.612 618.227 224.711C618.227 223.315 618.576 222.229 619.273 221.453C619.971 220.672 620.94 220.281 622.18 220.281C623.378 220.281 624.328 220.68 625.031 221.477C625.74 222.273 626.094 223.352 626.094 224.711ZM619.57 224.711C619.57 225.805 619.789 226.638 620.227 227.211C620.664 227.784 621.307 228.07 622.156 228.07C623.005 228.07 623.648 227.786 624.086 227.219C624.529 226.646 624.75 225.81 624.75 224.711C624.75 223.622 624.529 222.797 624.086 222.234C623.648 221.667 623 221.383 622.141 221.383C621.292 221.383 620.651 221.661 620.219 222.219C619.786 222.776 619.57 223.607 619.57 224.711ZM634.203 227.852H634.133C633.534 228.721 632.638 229.156 631.445 229.156C630.326 229.156 629.453 228.773 628.828 228.008C628.208 227.242 627.898 226.154 627.898 224.742C627.898 223.331 628.211 222.234 628.836 221.453C629.461 220.672 630.331 220.281 631.445 220.281C632.607 220.281 633.497 220.703 634.117 221.547H634.219L634.164 220.93L634.133 220.328V216.844H635.43V229H634.375L634.203 227.852ZM631.609 228.07C632.495 228.07 633.135 227.831 633.531 227.352C633.932 226.867 634.133 226.089 634.133 225.016V224.742C634.133 223.529 633.93 222.664 633.523 222.148C633.122 221.628 632.479 221.367 631.594 221.367C630.833 221.367 630.25 221.664 629.844 222.258C629.443 222.846 629.242 223.68 629.242 224.758C629.242 225.852 629.443 226.677 629.844 227.234C630.245 227.792 630.833 228.07 631.609 228.07ZM648.172 227.852H648.102C647.503 228.721 646.607 229.156 645.414 229.156C644.294 229.156 643.422 228.773 642.797 228.008C642.177 227.242 641.867 226.154 641.867 224.742C641.867 223.331 642.18 222.234 642.805 221.453C643.43 220.672 644.299 220.281 645.414 220.281C646.576 220.281 647.466 220.703 648.086 221.547H648.188L648.133 220.93L648.102 220.328V216.844H649.398V229H648.344L648.172 227.852ZM645.578 228.07C646.464 228.07 647.104 227.831 647.5 227.352C647.901 226.867 648.102 226.089 648.102 225.016V224.742C648.102 223.529 647.898 222.664 647.492 222.148C647.091 221.628 646.448 221.367 645.562 221.367C644.802 221.367 644.219 221.664 643.812 222.258C643.411 222.846 643.211 223.68 643.211 224.758C643.211 225.852 643.411 226.677 643.812 227.234C644.214 227.792 644.802 228.07 645.578 228.07ZM659.547 224.711C659.547 226.107 659.195 227.198 658.492 227.984C657.789 228.766 656.818 229.156 655.578 229.156C654.812 229.156 654.133 228.977 653.539 228.617C652.945 228.258 652.487 227.742 652.164 227.07C651.841 226.398 651.68 225.612 651.68 224.711C651.68 223.315 652.029 222.229 652.727 221.453C653.424 220.672 654.393 220.281 655.633 220.281C656.831 220.281 657.781 220.68 658.484 221.477C659.193 222.273 659.547 223.352 659.547 224.711ZM653.023 224.711C653.023 225.805 653.242 226.638 653.68 227.211C654.117 227.784 654.76 228.07 655.609 228.07C656.458 228.07 657.102 227.786 657.539 227.219C657.982 226.646 658.203 225.81 658.203 224.711C658.203 223.622 657.982 222.797 657.539 222.234C657.102 221.667 656.453 221.383 655.594 221.383C654.745 221.383 654.104 221.661 653.672 222.219C653.24 222.776 653.023 223.607 653.023 224.711ZM663.125 229H661.828V216.844H663.125V229ZM673.266 224.711C673.266 226.107 672.914 227.198 672.211 227.984C671.508 228.766 670.536 229.156 669.297 229.156C668.531 229.156 667.852 228.977 667.258 228.617C666.664 228.258 666.206 227.742 665.883 227.07C665.56 226.398 665.398 225.612 665.398 224.711C665.398 223.315 665.747 222.229 666.445 221.453C667.143 220.672 668.112 220.281 669.352 220.281C670.549 220.281 671.5 220.68 672.203 221.477C672.911 222.273 673.266 223.352 673.266 224.711ZM666.742 224.711C666.742 225.805 666.961 226.638 667.398 227.211C667.836 227.784 668.479 228.07 669.328 228.07C670.177 228.07 670.82 227.786 671.258 227.219C671.701 226.646 671.922 225.81 671.922 224.711C671.922 223.622 671.701 222.797 671.258 222.234C670.82 221.667 670.172 221.383 669.312 221.383C668.464 221.383 667.823 221.661 667.391 222.219C666.958 222.776 666.742 223.607 666.742 224.711ZM679.453 220.281C679.833 220.281 680.174 220.312 680.477 220.375L680.297 221.578C679.943 221.5 679.63 221.461 679.359 221.461C678.667 221.461 678.073 221.742 677.578 222.305C677.089 222.867 676.844 223.568 676.844 224.406V229H675.547V220.438H676.617L676.766 222.023H676.828C677.146 221.466 677.529 221.036 677.977 220.734C678.424 220.432 678.917 220.281 679.453 220.281ZM692.094 229V223.461C692.094 222.763 691.935 222.242 691.617 221.898C691.299 221.555 690.802 221.383 690.125 221.383C689.229 221.383 688.573 221.625 688.156 222.109C687.74 222.594 687.531 223.393 687.531 224.508V229H686.234V220.438H687.289L687.5 221.609H687.562C687.828 221.188 688.201 220.862 688.68 220.633C689.159 220.398 689.693 220.281 690.281 220.281C691.312 220.281 692.089 220.531 692.609 221.031C693.13 221.526 693.391 222.32 693.391 223.414V229H692.094ZM697.359 229H696.062V220.438H697.359V229ZM695.953 218.117C695.953 217.82 696.026 217.604 696.172 217.469C696.318 217.328 696.5 217.258 696.719 217.258C696.927 217.258 697.107 217.328 697.258 217.469C697.409 217.609 697.484 217.826 697.484 218.117C697.484 218.409 697.409 218.628 697.258 218.773C697.107 218.914 696.927 218.984 696.719 218.984C696.5 218.984 696.318 218.914 696.172 218.773C696.026 218.628 695.953 218.409 695.953 218.117ZM705.633 226.664C705.633 227.461 705.336 228.076 704.742 228.508C704.148 228.94 703.315 229.156 702.242 229.156C701.107 229.156 700.221 228.977 699.586 228.617V227.414C699.997 227.622 700.438 227.786 700.906 227.906C701.38 228.026 701.836 228.086 702.273 228.086C702.951 228.086 703.471 227.979 703.836 227.766C704.201 227.547 704.383 227.216 704.383 226.773C704.383 226.44 704.237 226.156 703.945 225.922C703.659 225.682 703.096 225.401 702.258 225.078C701.461 224.781 700.893 224.523 700.555 224.305C700.221 224.081 699.971 223.828 699.805 223.547C699.643 223.266 699.562 222.93 699.562 222.539C699.562 221.841 699.846 221.292 700.414 220.891C700.982 220.484 701.76 220.281 702.75 220.281C703.672 220.281 704.573 220.469 705.453 220.844L704.992 221.898C704.133 221.544 703.354 221.367 702.656 221.367C702.042 221.367 701.578 221.464 701.266 221.656C700.953 221.849 700.797 222.115 700.797 222.453C700.797 222.682 700.854 222.878 700.969 223.039C701.089 223.201 701.279 223.354 701.539 223.5C701.799 223.646 702.299 223.857 703.039 224.133C704.055 224.503 704.74 224.875 705.094 225.25C705.453 225.625 705.633 226.096 705.633 226.664ZM709.047 229H707.75V220.438H709.047V229ZM707.641 218.117C707.641 217.82 707.714 217.604 707.859 217.469C708.005 217.328 708.188 217.258 708.406 217.258C708.615 217.258 708.794 217.328 708.945 217.469C709.096 217.609 709.172 217.826 709.172 218.117C709.172 218.409 709.096 218.628 708.945 218.773C708.794 218.914 708.615 218.984 708.406 218.984C708.188 218.984 708.005 218.914 707.859 218.773C707.714 218.628 707.641 218.409 707.641 218.117ZM719.188 228.07C720.052 228.07 720.682 227.839 721.078 227.375C721.474 226.911 721.685 226.13 721.711 225.031V224.742C721.711 223.544 721.508 222.682 721.102 222.156C720.695 221.63 720.052 221.367 719.172 221.367C718.411 221.367 717.828 221.664 717.422 222.258C717.021 222.846 716.82 223.68 716.82 224.758C716.82 225.836 717.018 226.659 717.414 227.227C717.815 227.789 718.406 228.07 719.188 228.07ZM718.992 229.156C717.888 229.156 717.026 228.768 716.406 227.992C715.786 227.216 715.477 226.133 715.477 224.742C715.477 223.341 715.789 222.247 716.414 221.461C717.039 220.674 717.909 220.281 719.023 220.281C720.195 220.281 721.096 220.724 721.727 221.609H721.797L721.984 220.438H723.008V232.844H721.711V229.18C721.711 228.659 721.74 228.216 721.797 227.852H721.695C721.096 228.721 720.195 229.156 718.992 229.156ZM726.984 220.438V225.992C726.984 226.69 727.143 227.211 727.461 227.555C727.779 227.898 728.276 228.07 728.953 228.07C729.849 228.07 730.503 227.826 730.914 227.336C731.331 226.846 731.539 226.047 731.539 224.938V220.438H732.836V229H731.766L731.578 227.852H731.508C731.242 228.273 730.872 228.596 730.398 228.82C729.93 229.044 729.393 229.156 728.789 229.156C727.747 229.156 726.966 228.909 726.445 228.414C725.93 227.919 725.672 227.128 725.672 226.039V220.438H726.984ZM736.891 229H735.594V220.438H736.891V229ZM735.484 218.117C735.484 217.82 735.557 217.604 735.703 217.469C735.849 217.328 736.031 217.258 736.25 217.258C736.458 217.258 736.638 217.328 736.789 217.469C736.94 217.609 737.016 217.826 737.016 218.117C737.016 218.409 736.94 218.628 736.789 218.773C736.638 218.914 736.458 218.984 736.25 218.984C736.031 218.984 735.849 218.914 735.703 218.773C735.557 218.628 735.484 218.409 735.484 218.117ZM739.453 228.172C739.453 227.823 739.531 227.56 739.688 227.383C739.849 227.201 740.078 227.109 740.375 227.109C740.677 227.109 740.911 227.201 741.078 227.383C741.25 227.56 741.336 227.823 741.336 228.172C741.336 228.51 741.25 228.771 741.078 228.953C740.906 229.135 740.672 229.227 740.375 229.227C740.109 229.227 739.888 229.146 739.711 228.984C739.539 228.818 739.453 228.547 739.453 228.172ZM743.719 228.172C743.719 227.823 743.797 227.56 743.953 227.383C744.115 227.201 744.344 227.109 744.641 227.109C744.943 227.109 745.177 227.201 745.344 227.383C745.516 227.56 745.602 227.823 745.602 228.172C745.602 228.51 745.516 228.771 745.344 228.953C745.172 229.135 744.938 229.227 744.641 229.227C744.375 229.227 744.154 229.146 743.977 228.984C743.805 228.818 743.719 228.547 743.719 228.172Z" fill="white"/>
<path d="M490.005 151.33H488.784L484.494 137.602C484.296 136.986 484.109 136.491 483.933 136.117C483.757 135.743 483.548 135.446 483.306 135.226C483.064 135.006 482.778 134.863 482.448 134.797C482.118 134.709 481.711 134.665 481.227 134.665V133.51H489.972V134.665C489.114 134.665 488.509 134.764 488.157 134.962C487.805 135.16 487.629 135.501 487.629 135.985C487.629 136.205 487.662 136.469 487.728 136.777C487.794 137.063 487.882 137.426 487.992 137.866L490.236 145.753H490.368L495.219 133.51H496.242L500.631 145.753H500.763L502.743 140.407C503.007 139.681 503.227 139.076 503.403 138.592C503.579 138.086 503.711 137.668 503.799 137.338C503.909 136.986 503.986 136.7 504.03 136.48C504.074 136.26 504.096 136.051 504.096 135.853C504.096 135.369 503.953 135.05 503.667 134.896C503.381 134.742 502.787 134.665 501.885 134.665V133.51H508.485V134.665C508.155 134.665 507.869 134.72 507.627 134.83C507.407 134.918 507.176 135.105 506.934 135.391C506.714 135.677 506.483 136.084 506.241 136.612C505.999 137.14 505.702 137.833 505.35 138.691L500.235 151.33H499.014L494.988 139.153H494.856L490.005 151.33ZM520.127 141.232C518.873 141.716 517.806 142.189 516.926 142.651C516.068 143.113 515.375 143.575 514.847 144.037C514.319 144.499 513.934 144.961 513.692 145.423C513.472 145.885 513.362 146.358 513.362 146.842C513.362 147.568 513.604 148.162 514.088 148.624C514.572 149.086 515.21 149.317 516.002 149.317C516.574 149.317 517.102 149.174 517.586 148.888C518.092 148.602 518.532 148.217 518.906 147.733C519.28 147.227 519.577 146.644 519.797 145.984C520.017 145.302 520.127 144.587 520.127 143.839V141.232ZM520.127 139.813V138.46C520.127 135.776 518.983 134.434 516.695 134.434C516.321 134.434 516.002 134.467 515.738 134.533C515.474 134.599 515.254 134.709 515.078 134.863C514.902 135.017 514.737 135.237 514.583 135.523C514.451 135.809 514.319 136.161 514.187 136.579C513.945 137.217 513.703 137.646 513.461 137.866C513.241 138.064 512.911 138.163 512.471 138.163C511.371 138.163 510.821 137.613 510.821 136.513C510.821 135.457 511.382 134.643 512.504 134.071C513.626 133.477 515.221 133.18 517.289 133.18C519.489 133.18 521.051 133.576 521.975 134.368C522.899 135.138 523.361 136.458 523.361 138.328V145.72C523.361 148.228 523.856 149.482 524.846 149.482C525.154 149.482 525.451 149.449 525.737 149.383C526.023 149.295 526.265 149.086 526.463 148.756L526.925 149.548C526.661 150.054 526.177 150.483 525.473 150.835C524.769 151.165 524.032 151.33 523.262 151.33C522.294 151.33 521.568 151.022 521.084 150.406C520.622 149.79 520.391 148.921 520.391 147.799H520.226C519.654 148.877 518.862 149.735 517.85 150.373C516.838 150.989 515.716 151.297 514.484 151.297C513.098 151.297 512.009 150.945 511.217 150.241C510.425 149.537 510.029 148.591 510.029 147.403C510.029 146.875 510.117 146.369 510.293 145.885C510.491 145.401 510.799 144.939 511.217 144.499C511.635 144.059 512.185 143.63 512.867 143.212C513.549 142.772 514.385 142.332 515.375 141.892L520.127 139.813ZM534.011 145.819C534.011 146.721 534.033 147.436 534.077 147.964C534.121 148.47 534.231 148.866 534.407 149.152C534.605 149.416 534.88 149.592 535.232 149.68C535.606 149.768 536.112 149.834 536.75 149.878V151H528.104V149.878C528.72 149.834 529.204 149.768 529.556 149.68C529.93 149.592 530.216 149.416 530.414 149.152C530.612 148.888 530.733 148.514 530.777 148.03C530.843 147.546 530.876 146.886 530.876 146.05V141.661C530.876 139.043 530.81 137.448 530.678 136.876C530.612 136.59 530.524 136.359 530.414 136.183C530.326 135.985 530.183 135.842 529.985 135.754C529.787 135.644 529.534 135.578 529.226 135.556C528.918 135.512 528.522 135.49 528.038 135.49V134.434L533.318 133.18L533.714 136.447H533.846C534.682 135.413 535.661 134.61 536.783 134.038C537.905 133.466 539.126 133.18 540.446 133.18C541.458 133.18 542.382 133.345 543.218 133.675C544.054 134.005 544.692 134.456 545.132 135.028C545.506 135.534 545.77 136.194 545.924 137.008C546.078 137.8 546.155 138.9 546.155 140.308V145.819C546.155 146.721 546.177 147.436 546.221 147.964C546.287 148.47 546.408 148.866 546.584 149.152C546.76 149.416 547.024 149.592 547.376 149.68C547.75 149.768 548.234 149.834 548.828 149.878V151H540.281V149.878C540.897 149.856 541.381 149.801 541.733 149.713C542.107 149.603 542.382 149.416 542.558 149.152C542.756 148.888 542.877 148.514 542.921 148.03C542.987 147.524 543.02 146.864 543.02 146.05V141.694C543.02 140.44 542.954 139.384 542.822 138.526C542.69 137.668 542.47 136.975 542.162 136.447C541.876 135.919 541.491 135.545 541.007 135.325C540.523 135.083 539.94 134.962 539.258 134.962C538.268 134.962 537.355 135.226 536.519 135.754C535.705 136.26 535.067 136.964 534.605 137.866C534.495 138.086 534.396 138.295 534.308 138.493C534.242 138.691 534.187 138.922 534.143 139.186C534.099 139.45 534.066 139.758 534.044 140.11C534.022 140.44 534.011 140.869 534.011 141.397V145.819ZM550.955 135.589V134.368C552.121 133.686 553.034 133.004 553.694 132.322C554.354 131.64 554.86 130.826 555.212 129.88H556.169V134.038H560.591V135.589H556.169V145.621C556.169 146.391 556.202 147.04 556.268 147.568C556.356 148.096 556.488 148.525 556.664 148.855C556.84 149.163 557.071 149.383 557.357 149.515C557.643 149.647 558.006 149.713 558.446 149.713C558.996 149.713 559.458 149.603 559.832 149.383C560.228 149.141 560.613 148.745 560.987 148.195L561.812 148.822C561.504 149.636 560.965 150.263 560.195 150.703C559.447 151.121 558.512 151.33 557.39 151.33C555.938 151.33 554.827 150.989 554.057 150.307C553.309 149.603 552.935 148.602 552.935 147.304V135.589H550.955ZM572.901 135.589V134.368C574.067 133.686 574.98 133.004 575.64 132.322C576.3 131.64 576.806 130.826 577.158 129.88H578.115V134.038H582.537V135.589H578.115V145.621C578.115 146.391 578.148 147.04 578.214 147.568C578.302 148.096 578.434 148.525 578.61 148.855C578.786 149.163 579.017 149.383 579.303 149.515C579.589 149.647 579.952 149.713 580.392 149.713C580.942 149.713 581.404 149.603 581.778 149.383C582.174 149.141 582.559 148.745 582.933 148.195L583.758 148.822C583.45 149.636 582.911 150.263 582.141 150.703C581.393 151.121 580.458 151.33 579.336 151.33C577.884 151.33 576.773 150.989 576.003 150.307C575.255 149.603 574.881 148.602 574.881 147.304V135.589H572.901ZM594.778 133.18C596.032 133.18 597.22 133.411 598.342 133.873C599.464 134.313 600.443 134.929 601.279 135.721C602.137 136.513 602.808 137.459 603.292 138.559C603.798 139.637 604.051 140.825 604.051 142.123C604.051 143.465 603.798 144.697 603.292 145.819C602.808 146.941 602.137 147.909 601.279 148.723C600.443 149.537 599.464 150.175 598.342 150.637C597.22 151.099 596.032 151.33 594.778 151.33C593.546 151.33 592.369 151.11 591.247 150.67C590.147 150.208 589.179 149.57 588.343 148.756C587.507 147.942 586.847 146.974 586.363 145.852C585.879 144.708 585.637 143.465 585.637 142.123C585.637 140.825 585.879 139.626 586.363 138.526C586.847 137.426 587.507 136.48 588.343 135.688C589.179 134.896 590.147 134.28 591.247 133.84C592.369 133.4 593.546 133.18 594.778 133.18ZM594.778 134.764C593.964 134.764 593.216 134.94 592.534 135.292C591.874 135.644 591.302 136.15 590.818 136.81C590.356 137.448 589.993 138.229 589.729 139.153C589.487 140.055 589.366 141.056 589.366 142.156C589.366 143.3 589.487 144.334 589.729 145.258C589.993 146.182 590.356 146.974 590.818 147.634C591.302 148.272 591.874 148.767 592.534 149.119C593.194 149.471 593.942 149.647 594.778 149.647C595.614 149.647 596.373 149.471 597.055 149.119C597.737 148.767 598.32 148.261 598.804 147.601C599.288 146.941 599.662 146.149 599.926 145.225C600.19 144.301 600.322 143.278 600.322 142.156C600.322 141.056 600.19 140.055 599.926 139.153C599.662 138.251 599.288 137.481 598.804 136.843C598.32 136.183 597.737 135.677 597.055 135.325C596.373 134.951 595.614 134.764 594.778 134.764ZM631.817 148.261C631.025 149.229 630.002 149.988 628.748 150.538C627.494 151.066 626.141 151.33 624.689 151.33C623.523 151.33 622.445 151.121 621.455 150.703C620.487 150.263 619.651 149.658 618.947 148.888C618.243 148.096 617.693 147.15 617.297 146.05C616.923 144.95 616.736 143.729 616.736 142.387C616.736 140.979 616.956 139.714 617.396 138.592C617.836 137.448 618.452 136.48 619.244 135.688C620.058 134.874 621.026 134.258 622.148 133.84C623.292 133.4 624.546 133.18 625.91 133.18C626.768 133.18 627.549 133.257 628.253 133.411C628.957 133.543 629.562 133.741 630.068 134.005C630.596 134.247 631.003 134.555 631.289 134.929C631.575 135.281 631.718 135.666 631.718 136.084C631.718 136.524 631.575 136.865 631.289 137.107C631.003 137.349 630.607 137.47 630.101 137.47C629.705 137.47 629.375 137.393 629.111 137.239C628.847 137.063 628.506 136.689 628.088 136.117C627.648 135.611 627.219 135.259 626.801 135.061C626.405 134.841 625.888 134.731 625.25 134.731C623.688 134.731 622.5 135.336 621.686 136.546C620.894 137.756 620.498 139.538 620.498 141.892C620.498 144.422 620.938 146.347 621.818 147.667C622.72 148.965 624.029 149.614 625.745 149.614C626.669 149.614 627.538 149.438 628.352 149.086C629.166 148.712 629.991 148.118 630.827 147.304L631.817 148.261ZM643.537 133.18C644.791 133.18 645.979 133.411 647.101 133.873C648.223 134.313 649.202 134.929 650.038 135.721C650.896 136.513 651.567 137.459 652.051 138.559C652.557 139.637 652.81 140.825 652.81 142.123C652.81 143.465 652.557 144.697 652.051 145.819C651.567 146.941 650.896 147.909 650.038 148.723C649.202 149.537 648.223 150.175 647.101 150.637C645.979 151.099 644.791 151.33 643.537 151.33C642.305 151.33 641.128 151.11 640.006 150.67C638.906 150.208 637.938 149.57 637.102 148.756C636.266 147.942 635.606 146.974 635.122 145.852C634.638 144.708 634.396 143.465 634.396 142.123C634.396 140.825 634.638 139.626 635.122 138.526C635.606 137.426 636.266 136.48 637.102 135.688C637.938 134.896 638.906 134.28 640.006 133.84C641.128 133.4 642.305 133.18 643.537 133.18ZM643.537 134.764C642.723 134.764 641.975 134.94 641.293 135.292C640.633 135.644 640.061 136.15 639.577 136.81C639.115 137.448 638.752 138.229 638.488 139.153C638.246 140.055 638.125 141.056 638.125 142.156C638.125 143.3 638.246 144.334 638.488 145.258C638.752 146.182 639.115 146.974 639.577 147.634C640.061 148.272 640.633 148.767 641.293 149.119C641.953 149.471 642.701 149.647 643.537 149.647C644.373 149.647 645.132 149.471 645.814 149.119C646.496 148.767 647.079 148.261 647.563 147.601C648.047 146.941 648.421 146.149 648.685 145.225C648.949 144.301 649.081 143.278 649.081 142.156C649.081 141.056 648.949 140.055 648.685 139.153C648.421 138.251 648.047 137.481 647.563 136.843C647.079 136.183 646.496 135.677 645.814 135.325C645.132 134.951 644.373 134.764 643.537 134.764ZM661.531 145.819C661.531 146.721 661.553 147.436 661.597 147.964C661.641 148.47 661.751 148.866 661.927 149.152C662.125 149.416 662.4 149.592 662.752 149.68C663.126 149.768 663.632 149.834 664.27 149.878V151H655.624V149.878C656.24 149.834 656.724 149.768 657.076 149.68C657.45 149.592 657.736 149.416 657.934 149.152C658.132 148.888 658.253 148.514 658.297 148.03C658.363 147.546 658.396 146.886 658.396 146.05V141.661C658.396 139.043 658.33 137.448 658.198 136.876C658.132 136.59 658.044 136.359 657.934 136.183C657.846 135.985 657.703 135.842 657.505 135.754C657.307 135.644 657.054 135.578 656.746 135.556C656.438 135.512 656.042 135.49 655.558 135.49V134.434L660.838 133.18L661.234 136.447H661.366C662.202 135.413 663.181 134.61 664.303 134.038C665.425 133.466 666.646 133.18 667.966 133.18C668.978 133.18 669.902 133.345 670.738 133.675C671.574 134.005 672.212 134.456 672.652 135.028C673.026 135.534 673.29 136.194 673.444 137.008C673.598 137.8 673.675 138.9 673.675 140.308V145.819C673.675 146.721 673.697 147.436 673.741 147.964C673.807 148.47 673.928 148.866 674.104 149.152C674.28 149.416 674.544 149.592 674.896 149.68C675.27 149.768 675.754 149.834 676.348 149.878V151H667.801V149.878C668.417 149.856 668.901 149.801 669.253 149.713C669.627 149.603 669.902 149.416 670.078 149.152C670.276 148.888 670.397 148.514 670.441 148.03C670.507 147.524 670.54 146.864 670.54 146.05V141.694C670.54 140.44 670.474 139.384 670.342 138.526C670.21 137.668 669.99 136.975 669.682 136.447C669.396 135.919 669.011 135.545 668.527 135.325C668.043 135.083 667.46 134.962 666.778 134.962C665.788 134.962 664.875 135.226 664.039 135.754C663.225 136.26 662.587 136.964 662.125 137.866C662.015 138.086 661.916 138.295 661.828 138.493C661.762 138.691 661.707 138.922 661.663 139.186C661.619 139.45 661.586 139.758 661.564 140.11C661.542 140.44 661.531 140.869 661.531 141.397V145.819ZM684.283 145.819C684.283 146.721 684.305 147.436 684.349 147.964C684.393 148.47 684.503 148.866 684.679 149.152C684.877 149.416 685.152 149.592 685.504 149.68C685.878 149.768 686.384 149.834 687.022 149.878V151H678.376V149.878C678.992 149.834 679.476 149.768 679.828 149.68C680.202 149.592 680.488 149.416 680.686 149.152C680.884 148.888 681.005 148.514 681.049 148.03C681.115 147.546 681.148 146.886 681.148 146.05V141.661C681.148 139.043 681.082 137.448 680.95 136.876C680.884 136.59 680.796 136.359 680.686 136.183C680.598 135.985 680.455 135.842 680.257 135.754C680.059 135.644 679.806 135.578 679.498 135.556C679.19 135.512 678.794 135.49 678.31 135.49V134.434L683.59 133.18L683.986 136.447H684.118C684.954 135.413 685.933 134.61 687.055 134.038C688.177 133.466 689.398 133.18 690.718 133.18C691.73 133.18 692.654 133.345 693.49 133.675C694.326 134.005 694.964 134.456 695.404 135.028C695.778 135.534 696.042 136.194 696.196 137.008C696.35 137.8 696.427 138.9 696.427 140.308V145.819C696.427 146.721 696.449 147.436 696.493 147.964C696.559 148.47 696.68 148.866 696.856 149.152C697.032 149.416 697.296 149.592 697.648 149.68C698.022 149.768 698.506 149.834 699.1 149.878V151H690.553V149.878C691.169 149.856 691.653 149.801 692.005 149.713C692.379 149.603 692.654 149.416 692.83 149.152C693.028 148.888 693.149 148.514 693.193 148.03C693.259 147.524 693.292 146.864 693.292 146.05V141.694C693.292 140.44 693.226 139.384 693.094 138.526C692.962 137.668 692.742 136.975 692.434 136.447C692.148 135.919 691.763 135.545 691.279 135.325C690.795 135.083 690.212 134.962 689.53 134.962C688.54 134.962 687.627 135.226 686.791 135.754C685.977 136.26 685.339 136.964 684.877 137.866C684.767 138.086 684.668 138.295 684.58 138.493C684.514 138.691 684.459 138.922 684.415 139.186C684.371 139.45 684.338 139.758 684.316 140.11C684.294 140.44 684.283 140.869 684.283 141.397V145.819ZM717.133 147.931C715.263 150.197 712.942 151.33 710.17 151.33C708.872 151.33 707.695 151.121 706.639 150.703C705.583 150.263 704.67 149.658 703.9 148.888C703.152 148.096 702.569 147.161 702.151 146.083C701.733 144.983 701.524 143.773 701.524 142.453C701.524 141.111 701.744 139.868 702.184 138.724C702.624 137.58 703.24 136.601 704.032 135.787C704.846 134.973 705.803 134.335 706.903 133.873C708.025 133.411 709.246 133.18 710.566 133.18C712.7 133.18 714.35 133.763 715.516 134.929C716.682 136.073 717.265 137.723 717.265 139.879C717.265 140.187 717.199 140.374 717.067 140.44C716.957 140.506 716.682 140.539 716.242 140.539H705.385C705.341 140.715 705.308 140.935 705.286 141.199C705.264 141.441 705.253 141.716 705.253 142.024C705.253 143.168 705.385 144.213 705.649 145.159C705.935 146.083 706.331 146.875 706.837 147.535C707.365 148.195 707.981 148.712 708.685 149.086C709.411 149.438 710.214 149.614 711.094 149.614C712.018 149.614 712.876 149.416 713.668 149.02C714.46 148.602 715.274 147.931 716.11 147.007L717.133 147.931ZM711.688 139.021C712.128 139.021 712.48 139.01 712.744 138.988C713.008 138.966 713.206 138.922 713.338 138.856C713.47 138.79 713.558 138.702 713.602 138.592C713.646 138.46 713.668 138.295 713.668 138.097C713.668 137.085 713.338 136.282 712.678 135.688C712.04 135.072 711.16 134.764 710.038 134.764C707.662 134.764 706.188 136.183 705.616 139.021H711.688ZM735.522 148.261C734.73 149.229 733.707 149.988 732.453 150.538C731.199 151.066 729.846 151.33 728.394 151.33C727.228 151.33 726.15 151.121 725.16 150.703C724.192 150.263 723.356 149.658 722.652 148.888C721.948 148.096 721.398 147.15 721.002 146.05C720.628 144.95 720.441 143.729 720.441 142.387C720.441 140.979 720.661 139.714 721.101 138.592C721.541 137.448 722.157 136.48 722.949 135.688C723.763 134.874 724.731 134.258 725.853 133.84C726.997 133.4 728.251 133.18 729.615 133.18C730.473 133.18 731.254 133.257 731.958 133.411C732.662 133.543 733.267 133.741 733.773 134.005C734.301 134.247 734.708 134.555 734.994 134.929C735.28 135.281 735.423 135.666 735.423 136.084C735.423 136.524 735.28 136.865 734.994 137.107C734.708 137.349 734.312 137.47 733.806 137.47C733.41 137.47 733.08 137.393 732.816 137.239C732.552 137.063 732.211 136.689 731.793 136.117C731.353 135.611 730.924 135.259 730.506 135.061C730.11 134.841 729.593 134.731 728.955 134.731C727.393 134.731 726.205 135.336 725.391 136.546C724.599 137.756 724.203 139.538 724.203 141.892C724.203 144.422 724.643 146.347 725.523 147.667C726.425 148.965 727.734 149.614 729.45 149.614C730.374 149.614 731.243 149.438 732.057 149.086C732.871 148.712 733.696 148.118 734.532 147.304L735.522 148.261ZM737.837 135.589V134.368C739.003 133.686 739.916 133.004 740.576 132.322C741.236 131.64 741.742 130.826 742.094 129.88H743.051V134.038H747.473V135.589H743.051V145.621C743.051 146.391 743.084 147.04 743.15 147.568C743.238 148.096 743.37 148.525 743.546 148.855C743.722 149.163 743.953 149.383 744.239 149.515C744.525 149.647 744.888 149.713 745.328 149.713C745.878 149.713 746.34 149.603 746.714 149.383C747.11 149.141 747.495 148.745 747.869 148.195L748.694 148.822C748.386 149.636 747.847 150.263 747.077 150.703C746.329 151.121 745.394 151.33 744.272 151.33C742.82 151.33 741.709 150.989 740.939 150.307C740.191 149.603 739.817 148.602 739.817 147.304V135.589H737.837ZM753.113 143.179V135.622H754.07C756.93 135.622 758.36 134.533 758.36 132.355C758.36 131.827 758.283 131.332 758.129 130.87C757.975 130.408 757.766 130.001 757.502 129.649C757.26 129.297 756.963 129.022 756.611 128.824C756.259 128.626 755.885 128.527 755.489 128.527C755.093 128.527 754.675 128.593 754.235 128.725C753.795 128.835 753.388 128.89 753.014 128.89C752.508 128.89 752.09 128.725 751.76 128.395C751.43 128.065 751.265 127.636 751.265 127.108C751.265 125.876 751.947 125.26 753.311 125.26C754.213 125.26 755.082 125.491 755.918 125.953C756.754 126.393 757.491 126.998 758.129 127.768C758.767 128.516 759.273 129.396 759.647 130.408C760.043 131.398 760.241 132.432 760.241 133.51C760.241 135.182 759.779 136.48 758.855 137.404C757.931 138.328 756.622 138.79 754.928 138.79V143.179H753.113ZM751.76 149.185C751.76 148.569 751.969 148.052 752.387 147.634C752.805 147.216 753.311 147.007 753.905 147.007C754.521 147.007 755.038 147.216 755.456 147.634C755.874 148.052 756.083 148.569 756.083 149.185C756.083 149.779 755.874 150.285 755.456 150.703C755.038 151.121 754.521 151.33 753.905 151.33C753.311 151.33 752.805 151.121 752.387 150.703C751.969 150.285 751.76 149.779 751.76 149.185Z" fill="white"/>
</svg>
