<svg width="144" height="57" viewBox="0 0 144 57" fill="none" xmlns="http://www.w3.org/2000/svg">
<path d="M80.6 39H65.78V38.31L75.17 24.69H72.41C71.55 24.69 70.85 24.73 70.31 24.81C69.77 24.87 69.33 25.02 68.99 25.26C68.67 25.48 68.42 25.79 68.24 26.19C68.08 26.59 67.94 27.12 67.82 27.78H66.65L67.01 23.1H80.54V23.79L71.3 37.38H73.94C74.98 37.38 75.84 37.34 76.52 37.26C77.2 37.16 77.75 36.99 78.17 36.75C78.59 36.49 78.92 36.14 79.16 35.7C79.4 35.24 79.61 34.64 79.79 33.9H80.96L80.6 39ZM89.7608 34.08C89.7608 34.88 89.7908 35.52 89.8508 36C89.9108 36.48 90.0308 36.85 90.2108 37.11C90.3908 37.37 90.6508 37.55 90.9908 37.65C91.3308 37.73 91.7908 37.78 92.3708 37.8V39H82.9208V37.8C83.4808 37.78 83.9308 37.72 84.2708 37.62C84.6308 37.5 84.9008 37.32 85.0808 37.08C85.2808 36.82 85.4108 36.47 85.4708 36.03C85.5508 35.57 85.5908 34.99 85.5908 34.29V30.6C85.5908 29.44 85.5708 28.49 85.5308 27.75C85.4908 26.99 85.4408 26.47 85.3808 26.19C85.2808 25.69 85.0508 25.36 84.6908 25.2C84.3508 25.04 83.7208 24.96 82.8008 24.96V23.94L89.7608 22.8V34.08ZM85.3508 16.44C85.3508 15.78 85.5708 15.23 86.0108 14.79C86.4708 14.33 87.0208 14.1 87.6608 14.1C88.3208 14.1 88.8708 14.33 89.3108 14.79C89.7708 15.23 90.0008 15.78 90.0008 16.44C90.0008 17.08 89.7708 17.63 89.3108 18.09C88.8708 18.53 88.3208 18.75 87.6608 18.75C87.0208 18.75 86.4708 18.53 86.0108 18.09C85.5708 17.63 85.3508 17.08 85.3508 16.44ZM106.841 28.02C106.841 27.22 106.821 26.59 106.781 26.13C106.741 25.65 106.631 25.29 106.451 25.05C106.271 24.79 106.001 24.62 105.641 24.54C105.301 24.44 104.831 24.36 104.231 24.3V23.1H111.011V32.19C111.011 33.41 111.021 34.37 111.041 35.07C111.081 35.75 111.141 36.26 111.221 36.6C111.281 36.86 111.351 37.07 111.431 37.23C111.511 37.37 111.641 37.49 111.821 37.59C112.001 37.67 112.241 37.73 112.541 37.77C112.861 37.79 113.271 37.8 113.771 37.8V38.97L107.801 39.33L107.471 36.66H107.351C106.831 37.5 106.101 38.15 105.161 38.61C104.221 39.07 103.171 39.3 102.011 39.3C99.8706 39.3 98.2406 38.54 97.1206 37.02C96.2606 35.86 95.8306 34.21 95.8306 32.07V28.02C95.8306 27.2 95.8106 26.56 95.7706 26.1C95.7306 25.62 95.6206 25.26 95.4406 25.02C95.2806 24.78 95.0306 24.62 94.6906 24.54C94.3506 24.44 93.8806 24.36 93.2806 24.3V23.1H100.001V31.59C100.001 33.61 100.251 35.08 100.751 36C101.251 36.9 102.051 37.35 103.151 37.35C104.331 37.35 105.241 36.81 105.881 35.73C106.521 34.69 106.841 33.16 106.841 31.14V28.02ZM121.9 34.35C121.9 35.13 121.93 35.75 121.99 36.21C122.07 36.65 122.22 36.99 122.44 37.23C122.66 37.47 122.98 37.63 123.4 37.71C123.82 37.77 124.38 37.8 125.08 37.8V39H115.06V37.8C115.66 37.76 116.14 37.7 116.5 37.62C116.86 37.54 117.13 37.38 117.31 37.14C117.49 36.9 117.6 36.56 117.64 36.12C117.7 35.66 117.73 35.05 117.73 34.29V30.63C117.73 29.39 117.7 28.4 117.64 27.66C117.58 26.92 117.45 26.35 117.25 25.95C117.05 25.55 116.76 25.29 116.38 25.17C116.02 25.03 115.54 24.96 114.94 24.96V23.91L120.94 22.8L121.42 26.25H121.54C122.08 25.19 122.79 24.35 123.67 23.73C124.55 23.11 125.48 22.8 126.46 22.8C127.22 22.8 127.84 22.99 128.32 23.37C128.8 23.75 129.04 24.23 129.04 24.81C129.04 25.45 128.85 25.99 128.47 26.43C128.11 26.87 127.61 27.09 126.97 27.09C126.67 27.09 126.4 27.03 126.16 26.91C125.92 26.79 125.7 26.66 125.5 26.52C125.32 26.36 125.13 26.22 124.93 26.1C124.75 25.96 124.56 25.89 124.36 25.89C123.98 25.89 123.62 26.14 123.28 26.64C122.94 27.14 122.66 27.81 122.44 28.65C122.28 29.25 122.15 29.93 122.05 30.69C121.95 31.43 121.9 32.17 121.9 32.91V34.35ZM136.812 34.08C136.812 34.88 136.842 35.52 136.902 36C136.962 36.48 137.082 36.85 137.262 37.11C137.442 37.37 137.702 37.55 138.042 37.65C138.382 37.73 138.842 37.78 139.422 37.8V39H129.972V37.8C130.532 37.78 130.982 37.72 131.322 37.62C131.682 37.5 131.952 37.32 132.132 37.08C132.332 36.82 132.462 36.47 132.522 36.03C132.602 35.57 132.642 34.99 132.642 34.29V30.6C132.642 29.44 132.622 28.49 132.582 27.75C132.542 26.99 132.492 26.47 132.432 26.19C132.332 25.69 132.102 25.36 131.742 25.2C131.402 25.04 130.772 24.96 129.852 24.96V23.94L136.812 22.8V34.08ZM132.402 16.44C132.402 15.78 132.622 15.23 133.062 14.79C133.522 14.33 134.072 14.1 134.712 14.1C135.372 14.1 135.922 14.33 136.362 14.79C136.822 15.23 137.052 15.78 137.052 16.44C137.052 17.08 136.822 17.63 136.362 18.09C135.922 18.53 135.372 18.75 134.712 18.75C134.072 18.75 133.522 18.53 133.062 18.09C132.622 17.63 132.402 17.08 132.402 16.44Z" fill="#1C1C1C"/>
<rect width="58" height="57" fill="#1C1C1C"/>
<path d="M29.43 36.39L36.36 18.9H45.12V20.1C44.46 20.1 43.92 20.17 43.5 20.31C43.1 20.43 42.79 20.66 42.57 21C42.35 21.34 42.2 21.81 42.12 22.41C42.06 22.99 42.03 23.73 42.03 24.63V36.27C42.03 37.27 42.07 38.06 42.15 38.64C42.23 39.22 42.39 39.67 42.63 39.99C42.87 40.31 43.21 40.52 43.65 40.62C44.11 40.72 44.71 40.78 45.45 40.8V42H34.17V40.8C34.91 40.78 35.5 40.72 35.94 40.62C36.4 40.5 36.75 40.29 36.99 39.99C37.25 39.69 37.42 39.27 37.5 38.73C37.58 38.17 37.62 37.42 37.62 36.48V22.44H37.47L29.4 42.3H27.18L18.84 22.44H18.72V36.27C18.72 37.27 18.76 38.06 18.84 38.64C18.92 39.22 19.08 39.67 19.32 39.99C19.56 40.31 19.9 40.52 20.34 40.62C20.8 40.72 21.4 40.78 22.14 40.8V42H12.9V40.8C13.64 40.78 14.24 40.72 14.7 40.62C15.16 40.5 15.51 40.29 15.75 39.99C16.01 39.69 16.18 39.27 16.26 38.73C16.34 38.17 16.38 37.42 16.38 36.48V24.42C16.38 23.58 16.34 22.88 16.26 22.32C16.18 21.76 16.03 21.32 15.81 21C15.59 20.66 15.27 20.43 14.85 20.31C14.45 20.17 13.91 20.1 13.23 20.1V18.9H22.32L29.31 36.39H29.43Z" fill="white"/>
</svg>
